<mxfile host="app.diagrams.net" agent="Mozilla/5.0 (X11; Linux x86_64) AppleWebKit/537.36 (KHTML, like Gecko) Chrome/131.0.0.0 Safari/537.36" version="25.0.3">
  <diagram name="Page-1" id="iuUJBDwJUBM9qDX2OrTa">
    <mxGraphModel dx="2088" dy="3252" grid="1" gridSize="10" guides="1" tooltips="1" connect="1" arrows="1" fold="1" page="1" pageScale="1" pageWidth="850" pageHeight="1100" math="0" shadow="0">
      <root>
        <mxCell id="0" />
        <mxCell id="1" parent="0" />
        <mxCell id="bBpXCqJxbz4is6mlF8sN-4" value="&amp;nbsp; &amp;nbsp; &amp;nbsp; &amp;nbsp; &amp;nbsp; MUNICIPIO" style="swimlane;whiteSpace=wrap;html=1;startSize=30;" parent="1" vertex="1">
          <mxGeometry x="10" y="-1010" width="170" height="140" as="geometry" />
        </mxCell>
        <mxCell id="bBpXCqJxbz4is6mlF8sN-21" value="" style="rounded=0;whiteSpace=wrap;html=1;" parent="bBpXCqJxbz4is6mlF8sN-4" vertex="1">
          <mxGeometry width="40" height="30" as="geometry" />
        </mxCell>
        <mxCell id="bBpXCqJxbz4is6mlF8sN-20" value="PK id: INTEGER" style="text;strokeColor=none;fillColor=none;spacingLeft=4;spacingRight=4;overflow=hidden;rotatable=0;points=[[0,0.5],[1,0.5]];portConstraint=eastwest;fontSize=12;whiteSpace=wrap;html=1;" parent="bBpXCqJxbz4is6mlF8sN-4" vertex="1">
          <mxGeometry y="30" width="155" height="30" as="geometry" />
        </mxCell>
        <mxCell id="bBpXCqJxbz4is6mlF8sN-22" value="" style="rounded=0;whiteSpace=wrap;html=1;" parent="bBpXCqJxbz4is6mlF8sN-4" vertex="1">
          <mxGeometry x="5" y="5" width="30" height="20" as="geometry" />
        </mxCell>
        <mxCell id="bBpXCqJxbz4is6mlF8sN-23" value="cod_ibge: INTEGER" style="text;strokeColor=none;fillColor=none;spacingLeft=4;spacingRight=4;overflow=hidden;rotatable=0;points=[[0,0.5],[1,0.5]];portConstraint=eastwest;fontSize=12;whiteSpace=wrap;html=1;" parent="bBpXCqJxbz4is6mlF8sN-4" vertex="1">
          <mxGeometry y="49" width="180" height="30" as="geometry" />
        </mxCell>
        <mxCell id="bBpXCqJxbz4is6mlF8sN-24" value="nome: VARCHAR(35)" style="text;strokeColor=none;fillColor=none;spacingLeft=4;spacingRight=4;overflow=hidden;rotatable=0;points=[[0,0.5],[1,0.5]];portConstraint=eastwest;fontSize=12;whiteSpace=wrap;html=1;" parent="bBpXCqJxbz4is6mlF8sN-4" vertex="1">
          <mxGeometry y="70" width="180" height="30" as="geometry" />
        </mxCell>
        <mxCell id="bBpXCqJxbz4is6mlF8sN-25" value="uf: VARCHAR(2)" style="text;strokeColor=none;fillColor=none;spacingLeft=4;spacingRight=4;overflow=hidden;rotatable=0;points=[[0,0.5],[1,0.5]];portConstraint=eastwest;fontSize=12;whiteSpace=wrap;html=1;" parent="bBpXCqJxbz4is6mlF8sN-4" vertex="1">
          <mxGeometry y="90" width="180" height="30" as="geometry" />
        </mxCell>
        <mxCell id="bBpXCqJxbz4is6mlF8sN-26" value="geom: GEOMETRY" style="text;strokeColor=none;fillColor=none;spacingLeft=4;spacingRight=4;overflow=hidden;rotatable=0;points=[[0,0.5],[1,0.5]];portConstraint=eastwest;fontSize=12;whiteSpace=wrap;html=1;" parent="bBpXCqJxbz4is6mlF8sN-4" vertex="1">
          <mxGeometry y="110" width="180" height="30" as="geometry" />
        </mxCell>
        <mxCell id="bBpXCqJxbz4is6mlF8sN-61" style="edgeStyle=orthogonalEdgeStyle;rounded=0;orthogonalLoop=1;jettySize=auto;html=1;entryX=1;entryY=0.5;entryDx=0;entryDy=0;endArrow=none;endFill=0;" parent="1" source="bBpXCqJxbz4is6mlF8sN-27" target="bBpXCqJxbz4is6mlF8sN-4" edge="1">
          <mxGeometry relative="1" as="geometry">
            <mxPoint x="230" y="-920" as="targetPoint" />
          </mxGeometry>
        </mxCell>
        <mxCell id="bBpXCqJxbz4is6mlF8sN-66" value="0..*" style="edgeLabel;html=1;align=center;verticalAlign=middle;resizable=0;points=[];" parent="bBpXCqJxbz4is6mlF8sN-61" vertex="1" connectable="0">
          <mxGeometry x="-0.7932" relative="1" as="geometry">
            <mxPoint x="-5" y="-10" as="offset" />
          </mxGeometry>
        </mxCell>
        <mxCell id="bBpXCqJxbz4is6mlF8sN-68" value="1" style="edgeLabel;html=1;align=center;verticalAlign=middle;resizable=0;points=[];" parent="bBpXCqJxbz4is6mlF8sN-61" vertex="1" connectable="0">
          <mxGeometry x="0.821" relative="1" as="geometry">
            <mxPoint x="-3" y="-10" as="offset" />
          </mxGeometry>
        </mxCell>
        <mxCell id="bBpXCqJxbz4is6mlF8sN-69" value="contém" style="edgeLabel;html=1;align=center;verticalAlign=middle;resizable=0;points=[];" parent="bBpXCqJxbz4is6mlF8sN-61" vertex="1" connectable="0">
          <mxGeometry x="0.1225" relative="1" as="geometry">
            <mxPoint x="6" y="10" as="offset" />
          </mxGeometry>
        </mxCell>
        <mxCell id="bBpXCqJxbz4is6mlF8sN-62" style="edgeStyle=orthogonalEdgeStyle;rounded=0;orthogonalLoop=1;jettySize=auto;html=1;endArrow=none;endFill=0;exitX=1.005;exitY=0.924;exitDx=0;exitDy=0;exitPerimeter=0;entryX=-0.001;entryY=0.24;entryDx=0;entryDy=0;entryPerimeter=0;" parent="1" source="bBpXCqJxbz4is6mlF8sN-31" edge="1">
          <mxGeometry relative="1" as="geometry">
            <mxPoint x="539.8199999999999" y="-923.8" as="targetPoint" />
          </mxGeometry>
        </mxCell>
        <mxCell id="bBpXCqJxbz4is6mlF8sN-73" value="1" style="edgeLabel;html=1;align=center;verticalAlign=middle;resizable=0;points=[];" parent="bBpXCqJxbz4is6mlF8sN-62" vertex="1" connectable="0">
          <mxGeometry x="0.8467" y="-1" relative="1" as="geometry">
            <mxPoint x="266" y="-192" as="offset" />
          </mxGeometry>
        </mxCell>
        <mxCell id="bBpXCqJxbz4is6mlF8sN-74" value="1..*" style="edgeLabel;html=1;align=center;verticalAlign=middle;resizable=0;points=[];" parent="bBpXCqJxbz4is6mlF8sN-62" vertex="1" connectable="0">
          <mxGeometry x="-0.7955" y="-1" relative="1" as="geometry">
            <mxPoint x="1" y="-9" as="offset" />
          </mxGeometry>
        </mxCell>
        <mxCell id="bBpXCqJxbz4is6mlF8sN-76" value="contém" style="edgeLabel;html=1;align=center;verticalAlign=middle;resizable=0;points=[];" parent="bBpXCqJxbz4is6mlF8sN-62" vertex="1" connectable="0">
          <mxGeometry x="0.0053" y="1" relative="1" as="geometry">
            <mxPoint y="9" as="offset" />
          </mxGeometry>
        </mxCell>
        <mxCell id="bBpXCqJxbz4is6mlF8sN-27" value="VOTO_CANDIDATO" style="swimlane;whiteSpace=wrap;html=1;startSize=30;" parent="1" vertex="1">
          <mxGeometry x="280" y="-1000" width="180" height="120" as="geometry" />
        </mxCell>
        <mxCell id="bBpXCqJxbz4is6mlF8sN-29" value="PK id: INTEGER" style="text;strokeColor=none;fillColor=none;spacingLeft=4;spacingRight=4;overflow=hidden;rotatable=0;points=[[0,0.5],[1,0.5]];portConstraint=eastwest;fontSize=12;whiteSpace=wrap;html=1;" parent="bBpXCqJxbz4is6mlF8sN-27" vertex="1">
          <mxGeometry y="30" width="155" height="30" as="geometry" />
        </mxCell>
        <mxCell id="bBpXCqJxbz4is6mlF8sN-31" value="quantidade: INTEGER" style="text;strokeColor=none;fillColor=none;spacingLeft=4;spacingRight=4;overflow=hidden;rotatable=0;points=[[0,0.5],[1,0.5]];portConstraint=eastwest;fontSize=12;whiteSpace=wrap;html=1;" parent="bBpXCqJxbz4is6mlF8sN-27" vertex="1">
          <mxGeometry y="49" width="180" height="30" as="geometry" />
        </mxCell>
        <mxCell id="bBpXCqJxbz4is6mlF8sN-32" value="FK id_candidato: INTEGER" style="text;strokeColor=none;fillColor=none;spacingLeft=4;spacingRight=4;overflow=hidden;rotatable=0;points=[[0,0.5],[1,0.5]];portConstraint=eastwest;fontSize=12;whiteSpace=wrap;html=1;" parent="bBpXCqJxbz4is6mlF8sN-27" vertex="1">
          <mxGeometry y="70" width="180" height="30" as="geometry" />
        </mxCell>
        <mxCell id="bBpXCqJxbz4is6mlF8sN-35" value="FK id_municipio: INTEGER" style="text;strokeColor=none;fillColor=none;spacingLeft=4;spacingRight=4;overflow=hidden;rotatable=0;points=[[0,0.5],[1,0.5]];portConstraint=eastwest;fontSize=12;whiteSpace=wrap;html=1;" parent="bBpXCqJxbz4is6mlF8sN-27" vertex="1">
          <mxGeometry y="90" width="180" height="30" as="geometry" />
        </mxCell>
        <mxCell id="bBpXCqJxbz4is6mlF8sN-36" value="CANDIDATO" style="swimlane;whiteSpace=wrap;html=1;startSize=30;" parent="1" vertex="1">
          <mxGeometry x="540" y="-985" width="180" height="100" as="geometry" />
        </mxCell>
        <mxCell id="bBpXCqJxbz4is6mlF8sN-37" value="PK id: INTEGER" style="text;strokeColor=none;fillColor=none;spacingLeft=4;spacingRight=4;overflow=hidden;rotatable=0;points=[[0,0.5],[1,0.5]];portConstraint=eastwest;fontSize=12;whiteSpace=wrap;html=1;" parent="bBpXCqJxbz4is6mlF8sN-36" vertex="1">
          <mxGeometry y="35" width="155" height="30" as="geometry" />
        </mxCell>
        <mxCell id="bBpXCqJxbz4is6mlF8sN-38" value="nome: VARCHAR(255)" style="text;strokeColor=none;fillColor=none;spacingLeft=4;spacingRight=4;overflow=hidden;rotatable=0;points=[[0,0.5],[1,0.5]];portConstraint=eastwest;fontSize=12;whiteSpace=wrap;html=1;" parent="bBpXCqJxbz4is6mlF8sN-36" vertex="1">
          <mxGeometry y="49" width="180" height="30" as="geometry" />
        </mxCell>
        <mxCell id="bBpXCqJxbz4is6mlF8sN-41" value="numero: INTEGER" style="text;strokeColor=none;fillColor=none;spacingLeft=4;spacingRight=4;overflow=hidden;rotatable=0;points=[[0,0.5],[1,0.5]];portConstraint=eastwest;fontSize=12;whiteSpace=wrap;html=1;" parent="bBpXCqJxbz4is6mlF8sN-36" vertex="1">
          <mxGeometry y="70" width="180" height="30" as="geometry" />
        </mxCell>
        <mxCell id="bBpXCqJxbz4is6mlF8sN-42" value="DEMOGRAFIA_MUNICIPIO" style="swimlane;whiteSpace=wrap;html=1;startSize=30;" parent="1" vertex="1">
          <mxGeometry x="10" y="-790" width="180" height="340" as="geometry" />
        </mxCell>
        <mxCell id="bBpXCqJxbz4is6mlF8sN-43" value="PK id: INTEGER" style="text;strokeColor=none;fillColor=none;spacingLeft=4;spacingRight=4;overflow=hidden;rotatable=0;points=[[0,0.5],[1,0.5]];portConstraint=eastwest;fontSize=12;whiteSpace=wrap;html=1;" parent="bBpXCqJxbz4is6mlF8sN-42" vertex="1">
          <mxGeometry y="30" width="155" height="30" as="geometry" />
        </mxCell>
        <mxCell id="bBpXCqJxbz4is6mlF8sN-45" value="taxa_natalidade: INTEGER" style="text;strokeColor=none;fillColor=none;spacingLeft=4;spacingRight=4;overflow=hidden;rotatable=0;points=[[0,0.5],[1,0.5]];portConstraint=eastwest;fontSize=12;whiteSpace=wrap;html=1;" parent="bBpXCqJxbz4is6mlF8sN-42" vertex="1">
          <mxGeometry y="70" width="180" height="30" as="geometry" />
        </mxCell>
        <mxCell id="bBpXCqJxbz4is6mlF8sN-46" value="FK id_municipio: INTEGER" style="text;strokeColor=none;fillColor=none;spacingLeft=4;spacingRight=4;overflow=hidden;rotatable=0;points=[[0,0.5],[1,0.5]];portConstraint=eastwest;fontSize=12;whiteSpace=wrap;html=1;" parent="bBpXCqJxbz4is6mlF8sN-42" vertex="1">
          <mxGeometry y="50" width="180" height="30" as="geometry" />
        </mxCell>
        <mxCell id="bBpXCqJxbz4is6mlF8sN-47" value="idade_menor_1: INTEGER" style="text;strokeColor=none;fillColor=none;spacingLeft=4;spacingRight=4;overflow=hidden;rotatable=0;points=[[0,0.5],[1,0.5]];portConstraint=eastwest;fontSize=12;whiteSpace=wrap;html=1;" parent="bBpXCqJxbz4is6mlF8sN-42" vertex="1">
          <mxGeometry y="90" width="180" height="30" as="geometry" />
        </mxCell>
        <mxCell id="bBpXCqJxbz4is6mlF8sN-48" value="idade_1_a_4: INTEGER" style="text;strokeColor=none;fillColor=none;spacingLeft=4;spacingRight=4;overflow=hidden;rotatable=0;points=[[0,0.5],[1,0.5]];portConstraint=eastwest;fontSize=12;whiteSpace=wrap;html=1;" parent="bBpXCqJxbz4is6mlF8sN-42" vertex="1">
          <mxGeometry y="110" width="180" height="30" as="geometry" />
        </mxCell>
        <mxCell id="bBpXCqJxbz4is6mlF8sN-49" value="idade_5_a_9: INTEGER" style="text;strokeColor=none;fillColor=none;spacingLeft=4;spacingRight=4;overflow=hidden;rotatable=0;points=[[0,0.5],[1,0.5]];portConstraint=eastwest;fontSize=12;whiteSpace=wrap;html=1;" parent="bBpXCqJxbz4is6mlF8sN-42" vertex="1">
          <mxGeometry y="130" width="180" height="30" as="geometry" />
        </mxCell>
        <mxCell id="bBpXCqJxbz4is6mlF8sN-50" value="idade_10_a_14: INTEGER" style="text;strokeColor=none;fillColor=none;spacingLeft=4;spacingRight=4;overflow=hidden;rotatable=0;points=[[0,0.5],[1,0.5]];portConstraint=eastwest;fontSize=12;whiteSpace=wrap;html=1;" parent="bBpXCqJxbz4is6mlF8sN-42" vertex="1">
          <mxGeometry y="150" width="180" height="30" as="geometry" />
        </mxCell>
        <mxCell id="bBpXCqJxbz4is6mlF8sN-51" value="idade_15_a_19: INTEGER" style="text;strokeColor=none;fillColor=none;spacingLeft=4;spacingRight=4;overflow=hidden;rotatable=0;points=[[0,0.5],[1,0.5]];portConstraint=eastwest;fontSize=12;whiteSpace=wrap;html=1;" parent="bBpXCqJxbz4is6mlF8sN-42" vertex="1">
          <mxGeometry y="170" width="180" height="30" as="geometry" />
        </mxCell>
        <mxCell id="bBpXCqJxbz4is6mlF8sN-52" value="idade_20_a_29: INTEGER" style="text;strokeColor=none;fillColor=none;spacingLeft=4;spacingRight=4;overflow=hidden;rotatable=0;points=[[0,0.5],[1,0.5]];portConstraint=eastwest;fontSize=12;whiteSpace=wrap;html=1;" parent="bBpXCqJxbz4is6mlF8sN-42" vertex="1">
          <mxGeometry y="190" width="180" height="30" as="geometry" />
        </mxCell>
        <mxCell id="bBpXCqJxbz4is6mlF8sN-53" value="idade_30_a_39: INTEGER" style="text;strokeColor=none;fillColor=none;spacingLeft=4;spacingRight=4;overflow=hidden;rotatable=0;points=[[0,0.5],[1,0.5]];portConstraint=eastwest;fontSize=12;whiteSpace=wrap;html=1;" parent="bBpXCqJxbz4is6mlF8sN-42" vertex="1">
          <mxGeometry y="210" width="180" height="30" as="geometry" />
        </mxCell>
        <mxCell id="bBpXCqJxbz4is6mlF8sN-54" value="idade_40_a_49: INTEGER" style="text;strokeColor=none;fillColor=none;spacingLeft=4;spacingRight=4;overflow=hidden;rotatable=0;points=[[0,0.5],[1,0.5]];portConstraint=eastwest;fontSize=12;whiteSpace=wrap;html=1;" parent="bBpXCqJxbz4is6mlF8sN-42" vertex="1">
          <mxGeometry y="230" width="180" height="30" as="geometry" />
        </mxCell>
        <mxCell id="bBpXCqJxbz4is6mlF8sN-55" value="idade_50_a_59: INTEGER" style="text;strokeColor=none;fillColor=none;spacingLeft=4;spacingRight=4;overflow=hidden;rotatable=0;points=[[0,0.5],[1,0.5]];portConstraint=eastwest;fontSize=12;whiteSpace=wrap;html=1;" parent="bBpXCqJxbz4is6mlF8sN-42" vertex="1">
          <mxGeometry y="250" width="180" height="30" as="geometry" />
        </mxCell>
        <mxCell id="bBpXCqJxbz4is6mlF8sN-56" value="idade_60_a_69: INTEGER" style="text;strokeColor=none;fillColor=none;spacingLeft=4;spacingRight=4;overflow=hidden;rotatable=0;points=[[0,0.5],[1,0.5]];portConstraint=eastwest;fontSize=12;whiteSpace=wrap;html=1;" parent="bBpXCqJxbz4is6mlF8sN-42" vertex="1">
          <mxGeometry y="270" width="180" height="30" as="geometry" />
        </mxCell>
        <mxCell id="bBpXCqJxbz4is6mlF8sN-57" value="idade_70_a_79: INTEGER" style="text;strokeColor=none;fillColor=none;spacingLeft=4;spacingRight=4;overflow=hidden;rotatable=0;points=[[0,0.5],[1,0.5]];portConstraint=eastwest;fontSize=12;whiteSpace=wrap;html=1;" parent="bBpXCqJxbz4is6mlF8sN-42" vertex="1">
          <mxGeometry y="290" width="180" height="30" as="geometry" />
        </mxCell>
        <mxCell id="bBpXCqJxbz4is6mlF8sN-58" value="idade_acimea_80: INTEGER" style="text;strokeColor=none;fillColor=none;spacingLeft=4;spacingRight=4;overflow=hidden;rotatable=0;points=[[0,0.5],[1,0.5]];portConstraint=eastwest;fontSize=12;whiteSpace=wrap;html=1;" parent="bBpXCqJxbz4is6mlF8sN-42" vertex="1">
          <mxGeometry y="310" width="180" height="30" as="geometry" />
        </mxCell>
        <mxCell id="bBpXCqJxbz4is6mlF8sN-63" style="edgeStyle=orthogonalEdgeStyle;rounded=0;orthogonalLoop=1;jettySize=auto;html=1;entryX=0.5;entryY=1;entryDx=0;entryDy=0;entryPerimeter=0;endArrow=none;endFill=0;" parent="1" source="bBpXCqJxbz4is6mlF8sN-42" target="bBpXCqJxbz4is6mlF8sN-26" edge="1">
          <mxGeometry relative="1" as="geometry" />
        </mxCell>
        <mxCell id="bBpXCqJxbz4is6mlF8sN-70" value="1" style="edgeLabel;html=1;align=center;verticalAlign=middle;resizable=0;points=[];" parent="bBpXCqJxbz4is6mlF8sN-63" vertex="1" connectable="0">
          <mxGeometry x="0.854" y="-1" relative="1" as="geometry">
            <mxPoint x="4" y="3" as="offset" />
          </mxGeometry>
        </mxCell>
        <mxCell id="bBpXCqJxbz4is6mlF8sN-71" value="1" style="edgeLabel;html=1;align=center;verticalAlign=middle;resizable=0;points=[];" parent="bBpXCqJxbz4is6mlF8sN-63" vertex="1" connectable="0">
          <mxGeometry x="-0.8246" y="1" relative="1" as="geometry">
            <mxPoint x="7" y="-3" as="offset" />
          </mxGeometry>
        </mxCell>
        <mxCell id="bBpXCqJxbz4is6mlF8sN-72" value="contém" style="edgeLabel;html=1;align=center;verticalAlign=middle;resizable=0;points=[];" parent="bBpXCqJxbz4is6mlF8sN-63" vertex="1" connectable="0">
          <mxGeometry x="0.1635" y="-1" relative="1" as="geometry">
            <mxPoint x="19" y="3" as="offset" />
          </mxGeometry>
        </mxCell>
        <mxCell id="AolHexdjKbLcG2R-Ld9C-1" value="VACINACAO_MUNICIPIO" style="swimlane;whiteSpace=wrap;html=1;startSize=30;" parent="1" vertex="1">
          <mxGeometry x="280" y="-790" width="180" height="115" as="geometry" />
        </mxCell>
        <mxCell id="AolHexdjKbLcG2R-Ld9C-2" value="PK id: INTEGER" style="text;strokeColor=none;fillColor=none;spacingLeft=4;spacingRight=4;overflow=hidden;rotatable=0;points=[[0,0.5],[1,0.5]];portConstraint=eastwest;fontSize=12;whiteSpace=wrap;html=1;" parent="AolHexdjKbLcG2R-Ld9C-1" vertex="1">
          <mxGeometry y="30" width="155" height="30" as="geometry" />
        </mxCell>
        <mxCell id="AolHexdjKbLcG2R-Ld9C-3" value="tipo: VARCHAR(100)" style="text;strokeColor=none;fillColor=none;spacingLeft=4;spacingRight=4;overflow=hidden;rotatable=0;points=[[0,0.5],[1,0.5]];portConstraint=eastwest;fontSize=12;whiteSpace=wrap;html=1;" parent="AolHexdjKbLcG2R-Ld9C-1" vertex="1">
          <mxGeometry y="70" width="180" height="30" as="geometry" />
        </mxCell>
        <mxCell id="AolHexdjKbLcG2R-Ld9C-4" value="FK id_municipio: INTEGER" style="text;strokeColor=none;fillColor=none;spacingLeft=4;spacingRight=4;overflow=hidden;rotatable=0;points=[[0,0.5],[1,0.5]];portConstraint=eastwest;fontSize=12;whiteSpace=wrap;html=1;" parent="AolHexdjKbLcG2R-Ld9C-1" vertex="1">
          <mxGeometry y="50" width="180" height="30" as="geometry" />
        </mxCell>
        <mxCell id="AolHexdjKbLcG2R-Ld9C-5" value="cobertura: DECIMAL" style="text;strokeColor=none;fillColor=none;spacingLeft=4;spacingRight=4;overflow=hidden;rotatable=0;points=[[0,0.5],[1,0.5]];portConstraint=eastwest;fontSize=12;whiteSpace=wrap;html=1;" parent="AolHexdjKbLcG2R-Ld9C-1" vertex="1">
          <mxGeometry y="90" width="180" height="30" as="geometry" />
        </mxCell>
        <mxCell id="AolHexdjKbLcG2R-Ld9C-18" style="edgeStyle=orthogonalEdgeStyle;rounded=0;orthogonalLoop=1;jettySize=auto;html=1;entryX=0.791;entryY=1.014;entryDx=0;entryDy=0;entryPerimeter=0;endArrow=none;endFill=0;exitX=0.5;exitY=0;exitDx=0;exitDy=0;" parent="1" source="AolHexdjKbLcG2R-Ld9C-1" target="bBpXCqJxbz4is6mlF8sN-26" edge="1">
          <mxGeometry relative="1" as="geometry">
            <mxPoint x="110" y="-780" as="sourcePoint" />
            <mxPoint x="110" y="-860" as="targetPoint" />
          </mxGeometry>
        </mxCell>
        <mxCell id="AolHexdjKbLcG2R-Ld9C-19" value="1" style="edgeLabel;html=1;align=center;verticalAlign=middle;resizable=0;points=[];" parent="AolHexdjKbLcG2R-Ld9C-18" vertex="1" connectable="0">
          <mxGeometry x="0.854" y="-1" relative="1" as="geometry">
            <mxPoint x="4" y="-13" as="offset" />
          </mxGeometry>
        </mxCell>
        <mxCell id="AolHexdjKbLcG2R-Ld9C-20" value="1..*" style="edgeLabel;html=1;align=center;verticalAlign=middle;resizable=0;points=[];" parent="AolHexdjKbLcG2R-Ld9C-18" vertex="1" connectable="0">
          <mxGeometry x="-0.8246" y="1" relative="1" as="geometry">
            <mxPoint x="11" y="17" as="offset" />
          </mxGeometry>
        </mxCell>
        <mxCell id="AolHexdjKbLcG2R-Ld9C-21" value="contém" style="edgeLabel;html=1;align=center;verticalAlign=middle;resizable=0;points=[];" parent="AolHexdjKbLcG2R-Ld9C-18" vertex="1" connectable="0">
          <mxGeometry x="0.1635" y="-1" relative="1" as="geometry">
            <mxPoint x="19" y="-7" as="offset" />
          </mxGeometry>
        </mxCell>
        <mxCell id="AolHexdjKbLcG2R-Ld9C-22" value="1" style="edgeLabel;html=1;align=center;verticalAlign=middle;resizable=0;points=[];" parent="1" vertex="1" connectable="0">
          <mxGeometry x="531.0046896036074" y="-931.0013677852919" as="geometry" />
        </mxCell>
      </root>
    </mxGraphModel>
  </diagram>
</mxfile>
